<svg width="26" height="25" viewBox="0 0 26 25" fill="none" xmlns="http://www.w3.org/2000/svg">
<path fill-rule="evenodd" clip-rule="evenodd" d="M17.6661 3.97101C17.374 3.9294 16.368 3.84619 15.1998 3.84619C12.755 3.84619 11.0784 5.28157 11.0784 7.91308V10.1806H8.31995V13.2593H11.0784V21.1539H14.3885V13.2593H17.1361L17.5579 10.1806H14.3885V8.21472C14.3885 7.33061 14.6373 6.71694 15.9678 6.71694H17.6661V3.97101Z" fill="#222222"/>
<mask id="mask0" mask-type="alpha" maskUnits="userSpaceOnUse" x="8" y="3" width="10" height="19">
<path fill-rule="evenodd" clip-rule="evenodd" d="M17.6661 3.97101C17.374 3.9294 16.368 3.84619 15.1998 3.84619C12.755 3.84619 11.0784 5.28157 11.0784 7.91308V10.1806H8.31995V13.2593H11.0784V21.1539H14.3885V13.2593H17.1361L17.5579 10.1806H14.3885V8.21472C14.3885 7.33061 14.6373 6.71694 15.9678 6.71694H17.6661V3.97101Z" fill="white"/>
</mask>
<g mask="url(#mask0)">
<rect width="26" height="25" fill="#373737"/>
</g>
</svg>
