<svg width="26" height="25" viewBox="0 0 26 25" fill="none" xmlns="http://www.w3.org/2000/svg">
<path fill-rule="evenodd" clip-rule="evenodd" d="M15.9998 12.5C15.9998 10.9114 14.6522 9.61566 13 9.61566C11.3478 9.61566 10.0002 10.9114 10.0002 12.5C10.0002 14.0887 11.3478 15.3844 13 15.3844C14.6522 15.3844 15.9998 14.0887 15.9998 12.5ZM17.6168 12.5C17.6168 14.9563 15.5545 16.9393 13 16.9393C10.4455 16.9393 8.3832 14.9563 8.3832 12.5C8.3832 10.0438 10.4455 8.0608 13 8.0608C15.5545 8.0608 17.6168 10.0438 17.6168 12.5ZM18.8824 7.88054C18.8824 8.45516 18.4019 8.91711 17.8043 8.91711C17.2067 8.91711 16.7263 8.45516 16.7263 7.88054C16.7263 7.30592 17.2067 6.84397 17.8043 6.84397C18.4019 6.84397 18.8824 7.30592 18.8824 7.88054ZM13 5.40175C11.6876 5.40175 8.87535 5.30034 7.69185 5.75103C7.28173 5.90877 6.97706 6.10031 6.66068 6.40452C6.3443 6.70873 6.1451 7.00168 5.98105 7.39603C5.51234 8.53401 5.6178 11.2381 5.6178 12.5C5.6178 13.7619 5.51234 16.4661 5.98105 17.604C6.1451 17.9984 6.3443 18.2913 6.66068 18.5955C6.97706 18.8997 7.28173 19.0913 7.69185 19.249C8.87535 19.6997 11.6876 19.5983 13 19.5983C14.3124 19.5983 17.1247 19.6997 18.3082 19.249C18.7183 19.0913 19.023 18.8997 19.3393 18.5955C19.6557 18.2913 19.8549 17.9984 20.019 17.604C20.4877 16.4661 20.3822 13.7619 20.3822 12.5C20.3822 11.2381 20.4877 8.53401 20.019 7.39603C19.8549 7.00168 19.6557 6.70873 19.3393 6.40452C19.023 6.10031 18.7183 5.90877 18.3082 5.75103C17.1247 5.30034 14.3124 5.40175 13 5.40175ZM21.9993 12.5C21.9993 13.6944 22.011 14.8774 21.9407 16.0717C21.8704 17.4576 21.5423 18.6857 20.4877 19.6997C19.4331 20.7138 18.1558 21.0292 16.7145 21.0968C15.4725 21.1644 14.2421 21.1532 13 21.1532C11.7579 21.1532 10.5275 21.1644 9.28546 21.0968C7.84417 21.0292 6.56693 20.7138 5.51233 19.6997C4.45773 18.6857 4.12963 17.4576 4.05932 16.0717C3.98901 14.8774 4.00073 13.6944 4.00073 12.5C4.00073 11.3057 3.98901 10.1227 4.05932 8.92836C4.12963 7.54251 4.45773 6.31439 5.51233 5.30035C6.56693 4.28631 7.84417 3.97083 9.28546 3.90323C10.5275 3.83563 11.7579 3.8469 13 3.8469C14.2421 3.8469 15.4725 3.83563 16.7145 3.90323C18.1558 3.97083 19.4331 4.28631 20.4877 5.30035C21.5423 6.31439 21.8704 7.54251 21.9407 8.92836C22.011 10.1227 21.9993 11.3057 21.9993 12.5Z" fill="#222222"/>
<mask id="mask0" mask-type="alpha" maskUnits="userSpaceOnUse" x="4" y="3" width="18" height="19">
<path fill-rule="evenodd" clip-rule="evenodd" d="M15.9998 12.5C15.9998 10.9114 14.6522 9.61566 13 9.61566C11.3478 9.61566 10.0002 10.9114 10.0002 12.5C10.0002 14.0887 11.3478 15.3844 13 15.3844C14.6522 15.3844 15.9998 14.0887 15.9998 12.5ZM17.6168 12.5C17.6168 14.9563 15.5545 16.9393 13 16.9393C10.4455 16.9393 8.3832 14.9563 8.3832 12.5C8.3832 10.0438 10.4455 8.0608 13 8.0608C15.5545 8.0608 17.6168 10.0438 17.6168 12.5ZM18.8824 7.88054C18.8824 8.45516 18.4019 8.91711 17.8043 8.91711C17.2067 8.91711 16.7263 8.45516 16.7263 7.88054C16.7263 7.30592 17.2067 6.84397 17.8043 6.84397C18.4019 6.84397 18.8824 7.30592 18.8824 7.88054ZM13 5.40175C11.6876 5.40175 8.87535 5.30034 7.69185 5.75103C7.28173 5.90877 6.97706 6.10031 6.66068 6.40452C6.3443 6.70873 6.1451 7.00168 5.98105 7.39603C5.51234 8.53401 5.6178 11.2381 5.6178 12.5C5.6178 13.7619 5.51234 16.4661 5.98105 17.604C6.1451 17.9984 6.3443 18.2913 6.66068 18.5955C6.97706 18.8997 7.28173 19.0913 7.69185 19.249C8.87535 19.6997 11.6876 19.5983 13 19.5983C14.3124 19.5983 17.1247 19.6997 18.3082 19.249C18.7183 19.0913 19.023 18.8997 19.3393 18.5955C19.6557 18.2913 19.8549 17.9984 20.019 17.604C20.4877 16.4661 20.3822 13.7619 20.3822 12.5C20.3822 11.2381 20.4877 8.53401 20.019 7.39603C19.8549 7.00168 19.6557 6.70873 19.3393 6.40452C19.023 6.10031 18.7183 5.90877 18.3082 5.75103C17.1247 5.30034 14.3124 5.40175 13 5.40175ZM21.9993 12.5C21.9993 13.6944 22.011 14.8774 21.9407 16.0717C21.8704 17.4576 21.5423 18.6857 20.4877 19.6997C19.4331 20.7138 18.1558 21.0292 16.7145 21.0968C15.4725 21.1644 14.2421 21.1532 13 21.1532C11.7579 21.1532 10.5275 21.1644 9.28546 21.0968C7.84417 21.0292 6.56693 20.7138 5.51233 19.6997C4.45773 18.6857 4.12963 17.4576 4.05932 16.0717C3.98901 14.8774 4.00073 13.6944 4.00073 12.5C4.00073 11.3057 3.98901 10.1227 4.05932 8.92836C4.12963 7.54251 4.45773 6.31439 5.51233 5.30035C6.56693 4.28631 7.84417 3.97083 9.28546 3.90323C10.5275 3.83563 11.7579 3.8469 13 3.8469C14.2421 3.8469 15.4725 3.83563 16.7145 3.90323C18.1558 3.97083 19.4331 4.28631 20.4877 5.30035C21.5423 6.31439 21.8704 7.54251 21.9407 8.92836C22.011 10.1227 21.9993 11.3057 21.9993 12.5Z" fill="white"/>
</mask>
<g mask="url(#mask0)">
<rect width="26" height="25" fill="#373737"/>
</g>
</svg>
