<svg width="26" height="25" viewBox="0 0 26 25" fill="none" xmlns="http://www.w3.org/2000/svg">
<path fill-rule="evenodd" clip-rule="evenodd" d="M22 12.5C22 7.72239 17.9688 3.84619 13 3.84619C8.03125 3.84619 4 7.72239 4 12.5C4 16.0495 6.21484 19.0918 9.39062 20.4327C9.36719 19.8243 9.37891 19.0918 9.54297 18.4383C9.54297 18.4383 9.71875 17.7397 10.7031 13.7283C10.4102 13.1761 10.4102 12.3536 10.4102 12.3536C10.4102 11.069 11.1836 10.1112 12.1445 10.1112C12.9648 10.1112 13.3633 10.7084 13.3633 11.4183C13.3633 12.2071 12.8359 13.3902 12.5664 14.4832C12.3438 15.4072 13.0469 16.1509 13.9844 16.1509C15.6953 16.1509 16.8438 14.0438 16.8438 11.5535C16.8438 9.64923 15.5078 8.22945 13.0938 8.22945C10.3633 8.22945 8.66406 10.1901 8.66406 12.3761C8.66406 13.131 8.89844 13.6606 9.26172 14.0776C9.42578 14.2691 9.44922 14.3367 9.39062 14.5621C9.34375 14.7198 9.25 15.103 9.20312 15.2494C9.14453 15.4748 8.95703 15.5537 8.75781 15.4748C7.50391 14.979 6.91797 13.6494 6.91797 12.162C6.91797 9.70557 9.07422 6.75334 13.3398 6.75334C16.7852 6.75334 19.0469 9.15343 19.0469 11.7113C19.0469 15.1142 17.0781 17.6495 14.1836 17.6495C13.2109 17.6495 12.2969 17.1425 11.9922 16.5678C11.4648 18.5622 11.3594 18.9453 11.3594 18.9453C11.1719 19.6102 10.7852 20.275 10.4453 20.7933C11.2656 21.0299 12.1094 21.1539 13 21.1539C17.9688 21.1539 22 17.2777 22 12.5Z" fill="#222222"/>
<mask id="mask0" mask-type="alpha" maskUnits="userSpaceOnUse" x="4" y="3" width="18" height="19">
<path fill-rule="evenodd" clip-rule="evenodd" d="M22 12.5C22 7.72239 17.9688 3.84619 13 3.84619C8.03125 3.84619 4 7.72239 4 12.5C4 16.0495 6.21484 19.0918 9.39062 20.4327C9.36719 19.8243 9.37891 19.0918 9.54297 18.4383C9.54297 18.4383 9.71875 17.7397 10.7031 13.7283C10.4102 13.1761 10.4102 12.3536 10.4102 12.3536C10.4102 11.069 11.1836 10.1112 12.1445 10.1112C12.9648 10.1112 13.3633 10.7084 13.3633 11.4183C13.3633 12.2071 12.8359 13.3902 12.5664 14.4832C12.3438 15.4072 13.0469 16.1509 13.9844 16.1509C15.6953 16.1509 16.8438 14.0438 16.8438 11.5535C16.8438 9.64923 15.5078 8.22945 13.0938 8.22945C10.3633 8.22945 8.66406 10.1901 8.66406 12.3761C8.66406 13.131 8.89844 13.6606 9.26172 14.0776C9.42578 14.2691 9.44922 14.3367 9.39062 14.5621C9.34375 14.7198 9.25 15.103 9.20312 15.2494C9.14453 15.4748 8.95703 15.5537 8.75781 15.4748C7.50391 14.979 6.91797 13.6494 6.91797 12.162C6.91797 9.70557 9.07422 6.75334 13.3398 6.75334C16.7852 6.75334 19.0469 9.15343 19.0469 11.7113C19.0469 15.1142 17.0781 17.6495 14.1836 17.6495C13.2109 17.6495 12.2969 17.1425 11.9922 16.5678C11.4648 18.5622 11.3594 18.9453 11.3594 18.9453C11.1719 19.6102 10.7852 20.275 10.4453 20.7933C11.2656 21.0299 12.1094 21.1539 13 21.1539C17.9688 21.1539 22 17.2777 22 12.5Z" fill="white"/>
</mask>
<g mask="url(#mask0)">
<rect width="26" height="25" fill="#373737"/>
</g>
</svg>
