<svg xmlns="http://www.w3.org/2000/svg" viewBox="0 0 532.96 96.82"><defs><style>.cls-1{fill:#373737;}</style></defs><title>Asset 1</title><g id="Layer_2" data-name="Layer 2"><g id="Layer_1-2" data-name="Layer 1"><polygon class="cls-1" points="54.39 38.4 54.39 6.7 42.27 6.7 42.27 0.59 73.14 0.59 73.14 6.7 60.85 6.7 60.85 38.4 54.39 38.4"/><polygon class="cls-1" points="90.78 38.4 90.78 0.59 117.91 0.59 115.95 6.7 97.23 6.7 97.29 15.27 114.06 15.27 114.06 21.36 97.29 21.36 97.23 32.33 115.95 32.33 117.91 38.4 90.78 38.4"/><polygon class="cls-1" points="132.5 0.59 139.57 0.59 151.86 25.27 164.17 0.59 171.25 0.59 151.86 39.34 132.5 0.59"/><polygon class="cls-1" points="186.34 38.4 186.34 0.59 213.46 0.59 211.51 6.7 192.79 6.7 192.85 15.27 209.62 15.27 209.62 21.36 192.85 21.36 192.79 32.33 212.27 32.33 214.23 38.4 186.34 38.4"/><polygon class="cls-1" points="364.1 38.38 364.1 6.68 351.99 6.68 351.99 0.58 382.86 0.58 382.86 6.68 370.57 6.68 370.57 38.38 364.1 38.38"/><path class="cls-1" d="M414.6,39a18.36,18.36,0,0,1-13.66-5.58,20.51,20.51,0,0,1,0-27.79,19.36,19.36,0,0,1,27.27,0,20.37,20.37,0,0,1,0,27.79A18.29,18.29,0,0,1,414.6,39m0-32.83a11.74,11.74,0,0,0-8.91,3.78,14.25,14.25,0,0,0,0,19.07,12.43,12.43,0,0,0,17.58.28l.27-.28a14.25,14.25,0,0,0,0-19.07,11.81,11.81,0,0,0-8.94-3.78"/><polygon class="cls-1" points="505.84 38.38 505.84 0.58 532.96 0.58 531 6.68 512.28 6.68 512.35 15.26 529.11 15.26 529.11 21.34 512.35 21.34 512.28 32.31 531 32.31 532.96 38.38 505.84 38.38"/><polygon class="cls-1" points="482.31 38.4 459.32 12.87 459.32 38.4 452.97 38.4 452.97 0.59 456.62 0.59 479.11 25.52 479.11 0.59 485.46 0.59 485.46 38.4 482.31 38.4"/><polygon class="cls-1" points="263.56 38.41 240.57 12.88 240.57 38.41 234.23 38.41 234.23 0.61 237.87 0.61 260.37 25.54 260.37 0.61 266.71 0.61 266.71 38.41 263.56 38.41"/><path class="cls-1" d="M308,35.15a19.25,19.25,0,0,0,5.94,2.75A27.29,27.29,0,0,0,321.66,39a16.69,16.69,0,0,0,10-3,9.9,9.9,0,0,0,4.39-8.52,10,10,0,0,0-.8-4,9,9,0,0,0-2.05-3,13.41,13.41,0,0,0-3.05-2.17,24.4,24.4,0,0,0-3.27-1.44c-.91-.31-2.09-.69-3.53-1.13l-4.16-1.15-1.75-.67a4.46,4.46,0,0,1-1.29-.6c-1.16-.88-1.76-1.71-1.76-2.44v-.39a3.53,3.53,0,0,1,1.65-3,9.38,9.38,0,0,1,5.49-1.34,19.12,19.12,0,0,1,10.22,3.12l2.09,1.29v-7l-.64-.39A21.72,21.72,0,0,0,321.5,0c-4.13,0-7.43,1-9.82,2.83A9.67,9.67,0,0,0,310,16.4a7.68,7.68,0,0,0,.59.69,11.15,11.15,0,0,0,3,2,24,24,0,0,0,3.29,1.32c.81.26,2.08.64,3.77,1.11l2.08.62.54.17,2.2.73a7,7,0,0,1,1.85.88,6.11,6.11,0,0,1,1.81,1.66,2.5,2.5,0,0,1,.48,1.46v.49a4.19,4.19,0,0,1-2.08,3.73,10.71,10.71,0,0,1-6.09,1.57,19.62,19.62,0,0,1-6.78-1.21,18.06,18.06,0,0,1-5.12-2.87L308,27.47Z"/><path class="cls-1" d="M0,35.15A19.41,19.41,0,0,0,6,37.9,27.28,27.28,0,0,0,13.71,39a16.8,16.8,0,0,0,10.06-3,10.43,10.43,0,0,0,3.58-12.5,8.87,8.87,0,0,0-2-3,13.12,13.12,0,0,0-3-2.17,24.4,24.4,0,0,0-3.27-1.44c-.91-.31-2.09-.69-3.54-1.13L11.38,14.6l-1.74-.67a4.11,4.11,0,0,1-1.29-.6c-1.17-.89-1.76-1.71-1.76-2.44V10.5a3.53,3.53,0,0,1,1.65-3,9.46,9.46,0,0,1,5.49-1.34A19.09,19.09,0,0,1,23.8,9.26l2.09,1.29v-7l-.64-.39A21.67,21.67,0,0,0,13.56,0C9.43,0,6.13,1,3.75,2.87a9.69,9.69,0,0,0-1.69,13.6,7,7,0,0,0,.56.66,11.15,11.15,0,0,0,3,2,24.68,24.68,0,0,0,3.3,1.32c.8.26,2.07.64,3.76,1.11l2.09.62.54.17,2.19.73a7,7,0,0,1,1.85.88,6.11,6.11,0,0,1,1.81,1.66,2.42,2.42,0,0,1,.49,1.46v.49a4.23,4.23,0,0,1-2.15,3.69,10.73,10.73,0,0,1-6.1,1.56,19.38,19.38,0,0,1-6.78-1.2,18,18,0,0,1-5.11-2.87L0,27.47Z"/><path class="cls-1" d="M233.79,96.18H221.9V95h1.6c1.84,0,2.76-.67,2.76-2V72.66a2,2,0,0,0-1-1.83,8.61,8.61,0,0,0-3.76-.57V69.05a10.17,10.17,0,0,0,7.58-2.84l1-.17V93a1.92,1.92,0,0,0,.52,1.6,3.9,3.9,0,0,0,2.15.39h1Z"/><path class="cls-1" d="M242.32,96.78l-.43-1.29a35.81,35.81,0,0,0,8.4-5.42,20.34,20.34,0,0,0,5.47-7.93q-2.46,2.34-7.5,2.32a7.12,7.12,0,0,1-5.58-2.73,9,9,0,0,1,.64-12.79l.12-.11a10.49,10.49,0,0,1,7.24-2.8,8.73,8.73,0,0,1,6.71,2.8,9.94,9.94,0,0,1,2.59,7,20.32,20.32,0,0,1-1.42,7.71,17.92,17.92,0,0,1-3.92,6A28.94,28.94,0,0,1,242.32,96.78Zm5.23-15.31a6.53,6.53,0,0,0,3.58.93,4.34,4.34,0,0,0,3.49-1.68,6.33,6.33,0,0,0,1.4-4.18,8.75,8.75,0,0,0-2.16-6,6.7,6.7,0,0,0-5.17-2.43,4.68,4.68,0,0,0-3.77,1.7,6.34,6.34,0,0,0-1.4,4.15,10,10,0,0,0,1.73,5.22,6.72,6.72,0,0,0,2.3,2.29Z"/><path class="cls-1" d="M282.16,70.85q0,4.23-6.89,7.93l.09.17a6.33,6.33,0,0,1,2.5-.6,7,7,0,0,1,5.14,2,7.36,7.36,0,0,1,2,5.53,9.77,9.77,0,0,1-3.67,7.93,13,13,0,0,1-8.57,3,12.41,12.41,0,0,1-4.15-.58,9.71,9.71,0,0,1-3.34-2.09l.69-4.56h1.12A8,8,0,0,0,269,93.41c.88.89,2.44,1.34,4.7,1.34A7.21,7.21,0,0,0,279,92.83,6.92,6.92,0,0,0,281,87.68a7.48,7.48,0,0,0-1.64-5.1,6,6,0,0,0-4.74-1.88,13.55,13.55,0,0,0-3.53.44V79.93l1.9-1a9.17,9.17,0,0,0,3.72-2.86,6.42,6.42,0,0,0,1-3.6q0-3.42-4.31-3.44a7.29,7.29,0,0,0-4.78,1.89c-.75.63-1.33,1.15-1.73,1.55l-.82-.86a11.2,11.2,0,0,1,10.17-5.51,6.54,6.54,0,0,1,4.37,1.35A4.4,4.4,0,0,1,282.16,70.85Z"/><path class="cls-1" d="M297.62,96.18h-5c1.63-3.65,2.88-6.36,3.77-8.14s2.34-4.31,4.35-7.63a125.5,125.5,0,0,1,7.13-10.33h-11.2a6.6,6.6,0,0,0-4.14,1.25,3.7,3.7,0,0,0-1.72,2.54l-1.21-.18,1.73-7.23H311.5l-.08,1A89.21,89.21,0,0,0,301.83,83,43.23,43.23,0,0,0,297.62,96.18Z"/></g></g></svg>